PathFileType	4	(X/Y/Z)	33_1_50_p1_0-307.trc
DataRate	CameraRate	NumFrames	NumMarkers	Units	OrigDataRate	OrigDataStartFrame	OrigNumFrames
60.0	60.0	6	27	m	60.0	115	308
Frame#	Time	RHip			RKnee			RAnkle			RBigToe			RSmallToe			RHeel			LHip			LKnee			LAnkle			LBigToe			LSmallToe			LHeel			Neck			Head			Nose			RShoulder			RElbow			RWrist			RThumb			RIndex			RPinky			LShoulder			LElbow			LWrist			LThumb			LIndex			LPinky			
		X1	Y1	Z1	X2	Y2	Z2	X3	Y3	Z3	X4	Y4	Z4	X5	Y5	Z5	X6	Y6	Z6	X7	Y7	Z7	X8	Y8	Z8	X9	Y9	Z9	X10	Y10	Z10	X11	Y11	Z11	X12	Y12	Z12	X13	Y13	Z13	X14	Y14	Z14	X15	Y15	Z15	X16	Y16	Z16	X17	Y17	Z17	X18	Y18	Z18	X19	Y19	Z19	X20	Y20	Z20	X21	Y21	Z21	X22	Y22	Z22	X23	Y23	Z23	X24	Y24	Z24	X25	Y25	Z25	X26	Y26	Z26	X27	Y27	Z27	
115	1.9166666666666667	0.30703864312352935	0.2861407118696352	0.16804030610174708	0.26461237650410885	0.4892565214148006	0.5558938641998521	0.24078584292154812	0.7318103457777129	0.926817385464549	0.25985503587839004	0.5487897649613864	1.003052698633313	0.3153921969598457	0.6133397259339707	0.9975565823064342	0.21625623544230607	0.8535028244640067	0.9883048594422733	0.08012970857134002	0.3189344969458992	0.1758909328634756	0.0980532790945788	0.49824998758128936	0.5587433250695346	0.08934045982144116	0.7583265243488335	0.9529950234943503	0.09511438666411982	0.5583540837114478	1.0008394939767293	0.05636995203734928	0.6002725210248229	0.9989165440839407	0.08986890995607814	0.8427008686206116	0.992069981197665	0.22330956360543852	0.02730924896023034	-0.37642774509108984	0.22847191082199825	-0.13062805666101523	-0.5697813878816473	0.23644243864244485	-0.13641595307478227	-0.4139074244524638	0.37773560824067787	0.07236141530166137	-0.2985596388196134	0.5251420778141093	0.08834125137465323	-0.055127951139306845	0.4822651867600671	-0.17685495558892372	-0.059525476114926264	0.41570401707044663	-0.3047875205360855	-0.09868328400347141	0.41199564239593683	-0.3065312322355279	-0.08560609994180546	0.4141134327257107	-0.28107639721480293	-0.03150368816733772	0.047335325670831895	0.06453791372816912	-0.291120030132418	-0.039638470771242836	0.17680867036656853	-0.027917932065949738	-0.0042493866956238155	0.17417250218004476	0.22757978173520396	0.06451444496659424	0.1542319308075111	0.33453273160431823	0.04129289527893717	0.15163641314561174	0.3685362864944628	-0.007388843284720976	0.2264857301079065	0.36037106626141313
116	1.9333333333333333	0.3070998192847133	0.2861001816114708	0.16823687034316073	0.26457773040894816	0.4891210750525458	0.5558970968871144	0.24079977768834562	0.7318173194517191	0.9267899453365	0.2546951070001427	0.564428887289887	1.005113619443141	0.3153590716177328	0.6121947332411443	0.9974941045178338	0.21629109498482543	0.8536919904628056	0.9882112284438206	0.07828258053575643	0.30586647518876975	0.17837777783073397	0.09728880829963352	0.4998127706642613	0.5625010415808023	0.08934212439795933	0.7583630803231278	0.9529441713834925	0.10170116929332043	0.5398087008578757	0.995213078049215	0.05798021088042421	0.5804219601434126	0.9972001516729191	0.08996680364255057	0.8436248533213095	0.9920387560691245	0.22332027827113674	0.027504192901772567	-0.3764860579672707	0.22839990725068096	-0.13063979692573963	-0.569771246555842	0.23640892641115016	-0.1363459007526365	-0.4139202342332735	0.3778092843193276	0.07203356348229434	-0.2985181896154776	0.5251427795395454	0.08812471998782329	-0.05519009680998133	0.47518981169072155	-0.1869506955846593	-0.05623913392424264	0.41549002865995294	-0.3054715940433441	-0.09848609968791754	0.40253371362193613	-0.3158638181560173	-0.08520307805808035	0.4072327392144418	-0.2828362379592522	-0.031583524148559326	0.047294558093794355	0.06461470592184092	-0.29115388674106923	-0.03972357488146306	0.1768809361075006	-0.028013948769288186	-0.004230020796816132	0.17402698882048953	0.2275618386020074	0.06443567578274818	0.15422151278635188	0.3344938538430579	0.04142687972158705	0.15179363277010482	0.36857473654243456	-0.007350508980471164	0.22635397487462838	0.3603522303023192
117	1.95	0.30420272578422375	0.2728929913145795	0.1667449369965255	0.2640029418642389	0.4860642054294675	0.5521013656961331	0.24079909540620245	0.7316204764610801	0.9267826589338047	0.2599799892821285	0.5495188953414645	1.0027008316697434	0.3156336722724447	0.6140669630788881	0.9971890021793764	0.21430051863815688	0.8361764775496113	0.9866596251750388	0.08029422118404587	0.3190024328061255	0.17582303326958756	0.09725268124414368	0.5001248477441841	0.5624575480698588	0.08942469695606833	0.7582967296351077	0.9529669702156118	0.10166936303514809	0.5392562496314313	0.9950078206792362	0.05797914030213014	0.5800360167666359	0.9971435235691565	0.09009749774803272	0.8441912342961483	0.9920460605091381	0.22334829404488474	0.027776180215561136	-0.37657309358824914	0.22831458634689258	-0.13062510150501705	-0.5697787469184187	0.2362867968550708	-0.13629099544818996	-0.4139435800663336	0.37328970267070616	0.07121615362871721	-0.2980217542535824	0.5254388575222639	0.08703338489465193	-0.05851505020370938	0.47108761010870154	-0.18829813063691525	-0.055960627470216094	0.40469272635833975	-0.2982327491852822	-0.09746531244342967	0.40219615976235823	-0.3157271023270028	-0.0854993837886517	0.39714299916432605	-0.2841654643986427	-0.03482775407103957	0.04711792994708224	0.065815922282833	-0.2884333348735979	-0.03971412220547887	0.17706514689403813	-0.02797280494175598	-0.004195853729840566	0.1741259194496189	0.22749738564088753	0.06442998495139801	0.15411580129105368	0.33450874850659773	0.041388973337758164	0.151411754940248	0.3685589542728663	-0.007673132367815896	0.22397420809360621	0.3567115148078905
118	1.9666666666666666	0.3042079260750173	0.27266431090968335	0.1666782673579421	0.26403042062224213	0.4859513204527258	0.5519241814038222	0.24079394338770732	0.7317053443962696	0.9267431276161759	0.2619054256380535	0.5615328652535942	1.003836951997301	0.31552131417421586	0.61304404599032	0.9973866815769089	0.21368112730896402	0.8318890352536337	0.9814451649068426	0.07809651040902951	0.3029694218831148	0.1747969464163836	0.09676910550299211	0.4969417097807387	0.5584912193128088	0.0893852826571156	0.7582317681565383	0.9527669612930323	0.1015725542803935	0.5397054236881236	0.9947792643803318	0.06263426008130807	0.5833599358858453	0.9968922922081346	0.08820502104458106	0.8452226819461758	0.9923290641900995	0.2183720902854054	0.03943211928486118	-0.3811875436473593	0.22826225135353423	-0.1295239249707911	-0.5668229086763	0.23614858823653892	-0.1361175506092538	-0.4140468642605873	0.3732152467652401	0.0715769076886852	-0.2980788784808853	0.5216251938843591	0.07443663005086264	-0.05848869581091923	0.4600078297994056	-0.20174649334106193	-0.05499849772930379	0.3898136999053069	-0.2814987506813744	-0.10311521869780989	0.3907225012573337	-0.3111027232168832	-0.09370154543819269	0.3929345880311306	-0.2893942883277168	-0.0433764767496085	0.04707545125955008	0.06578529688838532	-0.2883427752518535	-0.03968360156845923	0.17704283550838096	-0.028059854096914624	0.0011156998267759157	0.15972808135036912	0.2261083712851815	0.06499705443044233	0.15181667643093977	0.32727341416345984	0.04156591562678578	0.15109794212612218	0.36843743156009034	-0.007653809684010978	0.22389684282142588	0.35679438117387086
119	1.9833333333333334	0.3041707867997158	0.2724853251823237	0.16676577199880263	0.26398264793403875	0.48583386314406873	0.5518715221018632	0.2407881719754828	0.7317878591804294	0.9265246782898511	0.2599211444072404	0.5486044869040451	1.0029283674786755	0.3154334758517894	0.6128291665924968	0.9974659750450404	0.21553123613510608	0.8489030700423995	0.9823421254427082	0.07806018719375517	0.3030091943006222	0.17496294662247752	0.09753624621555562	0.49390137166226794	0.5510156693520524	0.08935648959772102	0.7580739987838766	0.9527435576384812	0.10166904792979514	0.5397727653883156	0.9950244398947335	0.06259071651086061	0.5834063909966313	0.9969804346352313	0.08932555265218703	0.8396580840425235	0.9890569358556326	0.2183889937432679	0.03966689999992738	-0.3812071450239518	0.22812041096597768	-0.12950482358406565	-0.5667290474592903	0.2278560743302561	-0.12699577097506387	-0.4179846998100213	0.3774111151356814	0.07264325686809174	-0.298548914632265	0.5176213651960881	0.07338798175343544	-0.05817203316990468	0.45253493046163584	-0.19418161764705025	-0.06053648382366748	0.3830818928250298	-0.2800166181343388	-0.10356411256456019	0.38767366490439353	-0.3194920399359463	-0.09114610306953651	0.3882416819780397	-0.27932602555054464	-0.043927313464616216	0.04702294420944261	0.06589683606739549	-0.28844878429221005	-0.03973570849073259	0.17716898063716688	-0.02809109956800981	-0.004444469064257019	0.17119151904137184	0.22408123570092614	0.06524849184307042	0.15143566471245226	0.32688766559839905	0.05050679119900914	0.13894847867442647	0.365940668662884	-0.00748442971024991	0.22394677384279013	0.35672784464703755
120	2.0	0.30824613440707044	0.27494048969150164	0.16625720580142817	0.2647705835671314	0.4891671047942584	0.5559040573600053	0.24131036047382282	0.7323286881712544	0.9311618425134783	0.26096157613692694	0.606326727951571	1.0085958945043771	0.32073016674719435	0.6430005536962715	1.0037227623907798	0.22057174664072218	0.8254621291824696	0.9756852027249113	0.07789978506987344	0.30169877902682757	0.17142626436331784	0.09795661416612499	0.4975146805699201	0.5586624174135764	0.08936984349336095	0.758178161792848	0.9529104026788985	0.09540771139009568	0.5588400558136999	1.0016293791971966	0.05821641876537192	0.581415773243073	0.997866204292594	0.08771246440829061	0.8373114312261997	0.9931711235353473	0.21843562145545473	0.03977748070588223	-0.3812985802307398	0.2281496206256795	-0.12952318032451027	-0.5667201087187549	0.2277167114779778	-0.12674649600185134	-0.4181173143771741	0.3731218028935356	0.07148739828331592	-0.2980693079382532	0.517583895939669	0.07311175025601797	-0.05823011531789779	0.448596576173264	-0.19561717848212115	-0.06042796329550435	0.37122796701326155	-0.26056550460235667	-0.1066250920065169	0.37434299602631593	-0.3077220263818718	-0.08576050230101684	0.3821015724074618	-0.28571226604920325	-0.03534885966852136	0.047134506110596094	0.06275720904892554	-0.2945521511291904	-0.0385177871368056	0.18797692451799125	-0.03506164504177139	-0.003599694706846841	0.17245590494969557	0.22428450185626814	0.06927281509099854	0.1521820143120899	0.32228519095542035	0.04534419393286155	0.15316472254826255	0.3680677786278258	-0.0018068662387192085	0.2117512068404102	0.3581183341683848
